# Blender 4.0.2
# www.blender.org
mtllib Prop_Weapon_HedgehogAmmo.mtl
o HedgehogAmmo
v 0.002931 0.005462 -0.042798
v -0.001529 0.390300 -0.038040
v 0.033192 0.005813 -0.030263
v 0.025368 0.390612 -0.026898
v 0.045726 0.005958 -0.000000
v 0.036509 0.390741 -0.000000
v 0.033192 0.005813 0.030263
v 0.025368 0.390612 0.026898
v 0.002931 0.005462 0.042798
v -0.001529 0.390300 0.038040
v -0.027330 0.005111 0.030263
v -0.028425 0.389989 0.026898
v -0.039865 0.004966 -0.000000
v -0.039566 0.389859 -0.000000
v -0.027330 0.005111 -0.030263
v -0.028425 0.389989 -0.026898
v 0.035047 0.379964 -0.036454
v -0.001404 0.379542 -0.051553
v 0.050146 0.380139 -0.000000
v 0.035047 0.379964 0.036454
v -0.001404 0.379542 0.051553
v -0.037855 0.379119 0.036454
v -0.052954 0.378944 -0.000000
v -0.037855 0.379119 -0.036454
v -0.028641 0.408597 0.026898
v -0.001744 0.408909 -0.038040
v -0.001850 0.418051 0.013313
v 0.025152 0.409221 -0.026898
v 0.011462 0.418205 0.000000
v 0.007563 0.418160 0.009414
v -0.015162 0.417897 0.000000
v -0.011263 0.417942 -0.009414
v 0.002545 0.038701 -0.042798
v 0.002420 0.049522 -0.021789
v 0.000187 0.242244 -0.051553
v 0.036638 0.242667 -0.036454
v 0.017826 0.049701 -0.015407
v 0.032806 0.039052 -0.030263
v 0.051737 0.242842 -0.000000
v 0.024208 0.049774 -0.000000
v 0.045341 0.039197 -0.000000
v 0.036638 0.242667 0.036454
v 0.017826 0.049701 0.015407
v 0.032806 0.039052 0.030263
v 0.000187 0.242244 0.051553
v 0.002420 0.049522 0.021789
v 0.002545 0.038701 0.042798
v -0.036264 0.241822 0.036454
v -0.012986 0.049343 0.015407
v -0.027716 0.038350 0.030263
v -0.051363 0.241647 -0.000000
v -0.019368 0.049270 -0.000000
v -0.040250 0.038205 -0.000000
v -0.036264 0.241822 -0.036454
v -0.012986 0.049343 -0.015407
v -0.027716 0.038350 -0.030263
v 0.007563 0.418160 -0.009414
v -0.001850 0.418051 -0.013313
v 0.036293 0.409350 -0.000000
v 0.025152 0.409221 0.026898
v -0.001744 0.408909 0.038040
v -0.011263 0.417942 0.009414
v -0.039782 0.408468 -0.000000
v -0.028641 0.408597 -0.026898
v -0.011430 0.432325 0.009414
v -0.002017 0.432434 -0.013313
v -0.002017 0.432434 0.013313
v 0.007396 0.432543 -0.009414
v 0.011295 0.432588 0.000000
v 0.007396 0.432543 0.009414
v -0.015329 0.432280 0.000000
v -0.011430 0.432325 -0.009414
v 0.000461 0.218591 -0.030047
v 0.021706 0.218837 -0.021247
v 0.030506 0.218939 0.000000
v 0.021706 0.218837 0.021247
v 0.000461 0.218591 0.030047
v -0.020784 0.218344 0.021247
v -0.029584 0.218243 0.000000
v -0.020784 0.218344 -0.021247
vn 0.3827 0.0044 -0.9239
vn 0.9238 0.0107 -0.3827
vn 0.9238 0.0107 0.3827
vn 0.3827 0.0044 0.9239
vn -0.3827 -0.0044 0.9239
vn -0.9238 -0.0107 0.3827
vn -0.9238 -0.0107 -0.3827
vn -0.3827 -0.0044 -0.9239
vn 0.0116 -0.9999 -0.0000
vn 0.2410 0.7603 -0.6031
vn 0.5943 0.7644 -0.2498
vn 0.5943 0.7644 0.2498
vn 0.2410 0.7603 0.6031
vn -0.2586 0.7546 0.6031
vn -0.6119 0.7505 0.2498
vn -0.6119 0.7505 -0.2498
vn -0.2586 0.7546 -0.6031
vn -0.1965 0.8712 -0.4499
vn -0.2856 -0.6465 -0.7074
vn -0.4600 0.8682 -0.1864
vn -0.6999 -0.6513 -0.2930
vn -0.4600 0.8682 0.1864
vn -0.6999 -0.6513 0.2930
vn -0.1965 0.8712 0.4499
vn -0.2856 -0.6465 0.7074
vn 0.1762 0.8755 0.4499
vn 0.3005 -0.6397 0.7074
vn 0.4397 0.8786 0.1864
vn 0.7148 -0.6349 0.2930
vn 0.4397 0.8786 -0.1864
vn 0.7148 -0.6349 -0.2930
vn 0.1762 0.8755 -0.4499
vn 0.3005 -0.6397 -0.7074
vn 0.1314 0.9300 -0.3433
vn 0.3325 0.9323 -0.1422
vn 0.3325 0.9323 0.1422
vn 0.1314 0.9300 0.3433
vn -0.1529 0.9267 0.3433
vn -0.3540 0.9244 0.1422
vn -0.3540 0.9244 -0.1422
vn -0.1529 0.9267 -0.3433
vn -0.0116 0.9999 -0.0000
vn 0.3828 -0.0406 -0.9229
vn 0.9234 -0.0344 -0.3823
vn 0.9234 -0.0344 0.3823
vn 0.3828 -0.0406 0.9229
vn -0.3817 -0.0495 0.9229
vn -0.9224 -0.0558 0.3823
vn -0.9224 -0.0558 -0.3823
vn -0.3817 -0.0495 -0.9229
vt 1.000000 0.875000
vt 1.000000 1.000000
vt 0.875000 1.000000
vt 0.875000 0.875000
vt 0.750000 1.000000
vt 0.750000 0.875000
vt 0.625000 1.000000
vt 0.625000 0.875000
vt 0.500000 1.000000
vt 0.500000 0.875000
vt 0.375000 1.000000
vt 0.375000 0.875000
vt 0.250000 1.000000
vt 0.250000 0.875000
vt 0.124777 0.375223
vt 0.072908 0.250000
vt 0.125000 1.000000
vt 0.125000 0.875000
vt 0.000000 1.000000
vt 0.000000 0.875000
vt 0.750000 0.490000
vt 0.580294 0.080294
vt 0.510000 0.250000
vt 0.580294 0.419706
vt 0.919706 0.419706
vt 0.750000 0.010000
vt 0.990000 0.250000
vt 0.919706 0.080294
vt 0.427092 0.250000
vt 0.375223 0.375223
vt 0.250000 0.072908
vt 0.375223 0.124777
vt 0.250000 0.427092
vt 0.419706 0.419706
vt 0.250000 0.490000
vt 0.490000 0.250000
vt 0.419706 0.080294
vt 0.250000 0.010000
vt 0.124777 0.124777
vt 0.080294 0.080294
vt 0.010000 0.250000
vt 0.080294 0.419706
vt 0.163351 0.336649
vt 0.127460 0.250000
vt 0.372540 0.250000
vt 0.336649 0.336649
vt 0.250000 0.127460
vt 0.336649 0.163351
vt 0.125000 0.500000
vt 0.125000 0.625000
vt 0.000000 0.625000
vt 0.000000 0.500000
vt 0.125000 0.750000
vt 0.000000 0.750000
vt 0.125000 0.859658
vt 0.000000 0.859658
vt 0.250000 0.500000
vt 0.250000 0.625000
vt 0.250000 0.750000
vt 0.250000 0.859658
vt 0.375000 0.500000
vt 0.375000 0.625000
vt 0.375000 0.750000
vt 0.375000 0.859658
vt 0.500000 0.500000
vt 0.500000 0.625000
vt 0.500000 0.750000
vt 0.500000 0.859658
vt 0.625000 0.500000
vt 0.625000 0.625000
vt 0.625000 0.750000
vt 0.625000 0.859658
vt 0.750000 0.500000
vt 0.750000 0.625000
vt 0.750000 0.750000
vt 0.750000 0.859658
vt 0.875000 0.500000
vt 0.875000 0.625000
vt 0.875000 0.750000
vt 0.875000 0.859658
vt 1.000000 0.500000
vt 1.000000 0.625000
vt 1.000000 0.750000
vt 1.000000 0.859658
vt 0.250000 0.372540
vt 0.163351 0.163351
s 0
f 35/1/1 18/2/1 17/3/1 36/4/1
f 36/4/2 17/3/2 19/5/2 39/6/2
f 39/6/3 19/5/3 20/7/3 42/8/3
f 42/8/4 20/7/4 21/9/4 45/10/4
f 45/10/5 21/9/5 22/11/5 48/12/5
f 48/12/6 22/11/6 23/13/6 51/14/6
f 16/15/7 14/16/7 63/16/7 64/15/7
f 51/14/7 23/13/7 24/17/7 54/18/7
f 54/18/8 24/17/8 18/19/8 35/20/8
f 1/21/9 11/22/9 13/23/9 15/24/9
f 11/22/9 1/21/9 3/25/9 9/26/9
f 9/26/9 3/25/9 5/27/9 7/28/9
f 6/29/2 4/30/2 28/30/2 59/29/2
f 10/31/4 8/32/4 60/32/4 61/31/4
f 2/33/10 4/30/10 17/34/10 18/35/10
f 4/30/11 6/29/11 19/36/11 17/34/11
f 6/29/12 8/32/12 20/37/12 19/36/12
f 8/32/13 10/31/13 21/38/13 20/37/13
f 10/31/14 12/39/14 22/40/14 21/38/14
f 12/39/15 14/16/15 23/41/15 22/40/15
f 14/16/16 16/15/16 24/42/16 23/41/16
f 16/15/17 2/33/17 18/35/17 24/42/17
f 32/43/7 31/44/7 71/44/7 72/43/7
f 29/45/2 57/46/2 68/46/2 69/45/2
f 27/47/4 30/48/4 70/48/4 67/47/4
f 12/39/5 10/31/5 61/31/5 25/39/5
f 8/32/3 6/29/3 59/29/3 60/32/3
f 4/30/1 2/33/1 26/33/1 28/30/1
f 2/33/8 16/15/8 64/15/8 26/33/8
f 14/16/6 12/39/6 25/39/6 63/16/6
f 15/49/8 56/50/8 33/51/8 1/52/8
f 56/50/18 55/53/18 34/54/18 33/51/18
f 80/55/19 54/18/19 35/20/19 73/56/19
f 13/57/7 53/58/7 56/50/7 15/49/7
f 53/58/20 52/59/20 55/53/20 56/50/20
f 79/60/21 51/14/21 54/18/21 80/55/21
f 11/61/6 50/62/6 53/58/6 13/57/6
f 50/62/22 49/63/22 52/59/22 53/58/22
f 78/64/23 48/12/23 51/14/23 79/60/23
f 9/65/5 47/66/5 50/62/5 11/61/5
f 47/66/24 46/67/24 49/63/24 50/62/24
f 77/68/25 45/10/25 48/12/25 78/64/25
f 7/69/4 44/70/4 47/66/4 9/65/4
f 44/70/26 43/71/26 46/67/26 47/66/26
f 76/72/27 42/8/27 45/10/27 77/68/27
f 5/73/3 41/74/3 44/70/3 7/69/3
f 41/74/28 40/75/28 43/71/28 44/70/28
f 75/76/29 39/6/29 42/8/29 76/72/29
f 3/77/2 38/78/2 41/74/2 5/73/2
f 38/78/30 37/79/30 40/75/30 41/74/30
f 74/80/31 36/4/31 39/6/31 75/76/31
f 1/81/1 33/82/1 38/78/1 3/77/1
f 33/82/32 34/83/32 37/79/32 38/78/32
f 73/84/33 35/1/33 36/4/33 74/80/33
f 58/85/34 57/46/34 28/30/34 26/33/34
f 57/46/35 29/45/35 59/29/35 28/30/35
f 29/45/36 30/48/36 60/32/36 59/29/36
f 30/48/37 27/47/37 61/31/37 60/32/37
f 27/47/38 62/86/38 25/39/38 61/31/38
f 62/86/39 31/44/39 63/16/39 25/39/39
f 31/44/40 32/43/40 64/15/40 63/16/40
f 32/43/41 58/85/41 26/33/41 64/15/41
f 68/46/42 67/47/42 70/48/42 69/45/42
f 65/86/42 66/85/42 72/43/42 71/44/42
f 67/47/42 68/46/42 66/85/42 65/86/42
f 62/86/5 27/47/5 67/47/5 65/86/5
f 30/48/3 29/45/3 69/45/3 70/48/3
f 57/46/1 58/85/1 66/85/1 68/46/1
f 58/85/8 32/43/8 72/43/8 66/85/8
f 31/44/6 62/86/6 65/86/6 71/44/6
f 34/83/43 73/84/43 74/80/43 37/79/43
f 37/79/44 74/80/44 75/76/44 40/75/44
f 40/75/45 75/76/45 76/72/45 43/71/45
f 43/71/46 76/72/46 77/68/46 46/67/46
f 46/67/47 77/68/47 78/64/47 49/63/47
f 49/63/48 78/64/48 79/60/48 52/59/48
f 52/59/49 79/60/49 80/55/49 55/53/49
f 55/53/50 80/55/50 73/56/50 34/54/50
