# Blender 4.2.2 LTS
# www.blender.org
mtllib Weapon_CruiseMissile.mtl
o CruiseTest
v -0.141783 1.241220 0.045319
v -0.141783 1.239951 -0.072131
v -0.058728 1.239053 -0.155181
v 0.058729 1.239053 -0.155181
v 0.141783 1.239951 -0.072131
v 0.141783 1.241220 0.045319
v 0.058729 1.242118 0.128369
v -0.058728 1.242118 0.128369
v -0.075935 -0.907824 0.041265
v -0.141783 -0.412894 0.063193
v -0.141783 0.098193 0.028447
v -0.141783 0.315973 0.026093
v -0.141783 0.827691 0.049788
v -0.141783 0.826422 -0.067662
v -0.141783 0.315335 -0.032915
v -0.141783 0.097555 -0.030562
v -0.141783 -0.414163 -0.054257
v -0.075935 -0.908504 -0.021638
v -0.058728 0.825525 -0.150712
v -0.058728 0.411997 -0.146243
v -0.058728 -0.001532 -0.141775
v -0.058729 -0.415061 -0.137306
v -0.031454 -0.908984 -0.066117
v 0.058729 0.825525 -0.150712
v 0.058729 0.411997 -0.146243
v 0.058728 -0.001532 -0.141775
v 0.058728 -0.415061 -0.137306
v 0.031453 -0.908984 -0.066117
v 0.141783 0.826422 -0.067662
v 0.141783 0.315335 -0.032915
v 0.141783 0.097555 -0.030562
v 0.141783 -0.414163 -0.054257
v 0.075935 -0.908504 -0.021638
v 0.141783 0.827691 0.049788
v 0.141783 0.315972 0.026093
v 0.141783 0.098193 0.028447
v 0.141783 -0.412894 0.063193
v 0.075935 -0.907824 0.041265
v 0.058729 0.828589 0.132837
v 0.058729 0.415061 0.137306
v 0.058728 0.001532 0.141775
v 0.058728 -0.411997 0.146243
v 0.031453 -0.907343 0.085745
v -0.058728 0.828589 0.132837
v -0.058728 0.415061 0.137306
v -0.058728 0.001532 0.141775
v -0.058728 -0.411997 0.146243
v -0.031454 -0.907343 0.085744
v -0.034302 1.621867 -0.031735
v -0.032845 1.622167 -0.003924
v -0.013605 1.621665 -0.050371
v 0.014208 1.621650 -0.051828
v 0.032845 1.621873 -0.031132
v 0.034302 1.622174 -0.003321
v 0.013605 1.622375 0.015315
v -0.014208 1.622391 0.016772
v -0.127378 1.374782 -0.067621
v -0.102091 1.469726 -0.058172
v -0.042287 1.469080 -0.117972
v -0.052762 1.373976 -0.142233
v 0.127378 1.374782 -0.067621
v 0.102091 1.469726 -0.058172
v 0.102091 1.470640 0.026398
v 0.127378 1.375923 0.037896
v -0.052762 1.376729 0.112508
v -0.042287 1.471286 0.086198
v -0.102091 1.470640 0.026398
v -0.127378 1.375923 0.037896
v 0.042288 1.469080 -0.117972
v 0.052762 1.373976 -0.142233
v 0.042288 1.471286 0.086198
v 0.052762 1.376729 0.112508
v -0.000001 1.644887 -0.017775
v -0.067440 1.558299 -0.044775
v -0.067440 1.558903 0.011091
v -0.027935 1.557872 -0.084279
v 0.027935 1.557872 -0.084279
v 0.067440 1.558299 -0.044775
v 0.067440 1.558903 0.011091
v 0.027935 1.559330 0.050593
v -0.027935 1.559330 0.050593
v -0.029770 -1.221903 0.025536
v -0.029770 -1.222170 0.000875
v -0.012331 -1.222358 -0.016563
v 0.012331 -1.222358 -0.016563
v 0.029770 -1.222170 0.000875
v 0.029770 -1.221903 0.025536
v 0.012331 -1.221715 0.042974
v -0.012331 -1.221715 0.042974
v 0.000000 -1.269920 0.013723
v -0.066455 -1.073146 0.119568
v 0.109403 -1.073610 0.076623
v 0.036957 -1.222249 0.102436
v 0.089223 -1.222814 0.050173
v 0.089223 -1.223613 -0.023736
v 0.036957 -1.224178 -0.075999
v -0.107966 -1.073594 0.078060
v -0.089223 -1.223613 -0.023736
v 0.025249 -0.983781 -0.050330
v -0.068053 -1.075462 -0.094751
v 0.025249 -0.982464 0.071578
v -0.082341 -1.257781 -0.152876
v -0.060958 -0.983395 -0.014625
v 0.060958 -0.983395 -0.014625
v -0.165519 -1.255083 0.096848
v -0.025250 -0.982464 0.071578
v -0.036957 -1.222249 0.102436
v -0.089223 -1.222814 0.050173
v -0.083280 -1.254194 0.179082
v 0.104713 -1.075066 -0.058094
v -0.106367 -1.075048 -0.056440
v -0.166458 -1.256872 -0.068764
v 0.065017 -1.073130 0.121006
v -0.036957 -1.224178 -0.075999
v 0.069707 -1.075444 -0.093097
v 0.162563 -1.256914 -0.072658
v -0.025250 -0.983781 -0.050330
v 0.060958 -0.982850 0.035871
v 0.086236 -1.257739 -0.148981
v 0.083071 -1.254192 0.179291
v -0.060958 -0.982850 0.035871
v 0.165728 -1.255085 0.096639
v -0.052984 -1.270157 -0.008223
v -0.030566 -1.252982 0.026202
v 0.030566 -1.253256 0.000881
v -0.012661 -1.253449 -0.017023
v 0.012661 -1.252788 0.044106
v -0.012661 -1.252788 0.044106
v 0.030566 -1.252982 0.026202
v 0.012661 -1.253449 -0.017023
v -0.030566 -1.253256 0.000881
v -0.047369 -1.269708 0.033343
v 0.047369 -1.270132 -0.005897
v -0.019621 -1.270432 -0.033643
v 0.019621 -1.269408 0.061089
v -0.013213 -1.269575 0.045621
v 0.031900 -1.269777 0.026935
v 0.013213 -1.270265 -0.018175
v -0.031900 -1.270063 0.000511
v -0.052984 -1.253356 -0.008404
v -0.036584 -1.254073 -0.074775
v -0.036584 -1.270874 -0.074594
v 0.036584 -1.268965 0.102040
v 0.036584 -1.252164 0.101858
v -0.021947 -1.252546 0.066523
v -0.021947 -1.269347 0.066704
v -0.088322 -1.252723 0.050123
v 0.052984 -1.252882 0.035487
v 0.088322 -1.253514 -0.023040
v 0.021947 -1.253691 -0.039439
v -0.088322 -1.269525 0.050305
v 0.052984 -1.269683 0.035669
v 0.088322 -1.270315 -0.022859
v 0.021947 -1.270492 -0.039258
v -0.141783 0.000635 0.058725
v -0.141783 0.414163 0.054257
v -0.141783 0.412894 -0.063193
v -0.141783 -0.000635 -0.058725
v 0.141783 0.412894 -0.063193
v 0.141783 -0.000635 -0.058725
v 0.141783 0.414163 0.054257
v 0.141783 0.000635 0.058725
v -0.577044 0.098193 0.028447
v -0.577044 0.315973 0.026093
v -0.577044 0.315335 -0.032915
v -0.577044 0.097555 -0.030562
v 0.577044 0.315335 -0.032915
v 0.577044 0.097555 -0.030562
v 0.577044 0.315972 0.026093
v 0.577044 0.098193 0.028447
v -0.141783 0.207399 0.056491
v -0.141783 0.206129 -0.060959
v -0.058728 0.205232 -0.144009
v 0.058728 0.205232 -0.144009
v 0.141783 0.206129 -0.060959
v 0.141783 0.207399 0.056490
v 0.058729 0.208296 0.139540
v -0.058728 0.208296 0.139540
v -0.141783 0.207083 0.027270
v -0.141783 0.206445 -0.031739
v 0.141783 0.206445 -0.031739
v 0.141783 0.207083 0.027270
v -0.655515 0.207083 0.027270
v -0.655515 0.206445 -0.031739
v 0.655515 0.206445 -0.031739
v 0.655515 0.207083 0.027270
vn -1.0000 -0.0000 -0.0000
vn -0.7071 -0.0076 -0.7071
vn -0.0000 -0.0108 -0.9999
vn 0.7071 -0.0076 -0.7071
vn 1.0000 -0.0000 -0.0000
vn 0.7071 0.0076 0.7071
vn -0.6584 0.3577 -0.6623
vn -0.0000 0.0108 0.9999
vn -0.7071 0.0076 0.7071
vn -0.7009 -0.1244 0.7023
vn -0.0000 -0.1212 0.9926
vn 0.7009 -0.1244 0.7023
vn 0.9913 -0.1319 0.0014
vn -0.0000 0.9999 -0.0108
vn 0.7009 -0.1395 -0.6995
vn -0.0000 -0.1427 -0.9898
vn -0.7009 -0.1395 -0.6995
vn -0.9913 -0.1319 0.0014
vn 0.9311 0.3648 -0.0039
vn -0.6584 0.3720 0.6544
vn -0.9311 0.3648 -0.0039
vn -0.0000 0.3548 -0.9350
vn 0.6584 0.3720 0.6544
vn 0.6584 0.3577 -0.6623
vn -0.0000 0.3749 0.9271
vn -0.0000 0.1170 0.9931
vn -0.0000 0.2681 0.9634
vn 0.7031 0.0987 -0.7042
vn 0.6832 0.2502 -0.6860
vn 0.7031 0.1139 0.7019
vn 0.6832 0.2650 0.6804
vn -0.0000 0.0955 -0.9954
vn -0.0000 0.2472 -0.9690
vn -0.9943 0.1063 -0.0011
vn -0.9662 0.2576 -0.0028
vn -0.7031 0.1139 0.7019
vn -0.6832 0.2650 0.6804
vn 0.9943 0.1063 -0.0011
vn 0.9662 0.2576 -0.0028
vn -0.7031 0.0987 -0.7042
vn -0.6832 0.2502 -0.6860
vn -0.2007 0.8566 0.4753
vn -0.4845 0.8492 -0.2099
vn 0.2007 0.8462 -0.4937
vn 0.4845 0.8536 0.1915
vn -0.8820 0.4712 0.0103
vn -0.6128 0.4641 -0.6396
vn -0.0154 0.4615 -0.8870
vn 0.6345 0.4644 -0.6178
vn 0.8820 0.4708 -0.0204
vn 0.6128 0.4779 0.6294
vn 0.0154 0.4805 0.8768
vn -0.6345 0.4776 0.6077
vn -0.0000 0.1062 -0.9943
vn 0.5836 0.5582 -0.5897
vn -0.7290 0.0824 -0.6795
vn 0.9931 0.1169 -0.0013
vn -0.9931 0.1169 -0.0013
vn 0.2500 -0.9381 -0.2399
vn -0.5836 0.5708 0.5775
vn -0.0000 0.1276 0.9918
vn 0.9997 0.0256 -0.0003
vn -0.0000 0.0148 -0.9999
vn -0.9997 0.0256 -0.0003
vn -0.7069 0.0332 0.7066
vn 0.0140 -0.9999 -0.0032
vn -0.0000 -1.0000 -0.0090
vn -0.0140 -0.9999 -0.0032
vn -0.0198 -0.9997 0.0108
vn -0.0140 -0.9996 0.0248
vn -0.0000 -0.9995 0.0306
vn 0.0140 -0.9996 0.0248
vn 0.0198 -0.9997 0.0108
vn -0.0000 -0.1853 0.9827
vn 0.6934 -0.2034 -0.6913
vn -0.6934 -0.1884 0.6955
vn -0.9806 -0.1959 0.0021
vn 0.9806 -0.1959 0.0021
vn -0.6934 -0.2034 -0.6912
vn 0.6934 -0.1884 0.6955
vn -0.0000 -0.2065 -0.9784
vn -0.6262 0.0665 -0.7768
vn -0.5836 0.5582 -0.5897
vn -0.7903 0.0730 0.6083
vn -0.2500 -0.9381 -0.2399
vn 0.7760 0.0817 0.6254
vn 0.7654 0.0795 -0.6386
vn 0.6091 0.0578 -0.7910
vn 0.2500 -0.9327 0.2601
vn 0.6786 0.0976 0.7280
vn -0.2500 -0.9327 0.2601
vn 0.5836 0.5708 0.5775
vn -0.6377 0.0947 0.7644
vn 0.6792 0.2707 -0.6822
vn -0.6792 0.2854 0.6762
vn -0.6792 0.2707 -0.6822
vn 0.6792 0.2854 0.6762
vn -0.0000 -0.9999 0.0108
vn -0.0000 0.0364 0.9993
vn -0.7069 0.0180 -0.7071
vn 0.7069 0.0180 -0.7071
vn 0.7069 0.0332 0.7066
vn 0.9708 0.0026 0.2399
vn 0.2399 -0.0105 -0.9707
vn -0.9708 -0.0026 -0.2399
vn -0.5169 0.0093 0.8560
vn -0.2399 0.0105 0.9707
vn -0.8561 -0.0056 -0.5168
vn 0.5169 -0.0093 -0.8560
vn 0.8561 0.0056 0.5168
vn 0.8113 0.5846 -0.0063
vn -0.8113 0.5846 -0.0063
vn -0.8113 -0.5846 0.0063
vn 0.8113 -0.5846 0.0063
vt 0.944875 0.872000
vt 0.968561 0.872000
vt 0.968561 0.926386
vt 0.944875 0.926386
vt 0.968561 0.980771
vt 0.944875 0.980771
vt 0.944875 0.545689
vt 0.968561 0.545689
vt 0.968561 0.600074
vt 0.944875 0.600074
vt 0.968561 0.654459
vt 0.944875 0.654459
vt 0.968561 0.708845
vt 0.944875 0.708845
vt 0.968561 0.763230
vt 0.944875 0.763230
vt 0.305620 0.093257
vt 0.290360 0.139709
vt 0.272903 0.126209
vt 0.282264 0.094707
vt 0.968561 0.817615
vt 0.944875 0.817615
vt 0.918016 0.385520
vt 0.946243 0.401588
vt 0.920929 0.429464
vt 0.902076 0.402852
vt 0.962527 0.411761
vt 0.931402 0.445207
vt 0.909346 0.817615
vt 0.921189 0.817615
vt 0.921189 0.872000
vt 0.909346 0.872000
vt 0.924772 0.362899
vt 0.957441 0.365334
vt 0.976778 0.367686
vt 0.909346 0.763230
vt 0.921189 0.763230
vt 0.921272 0.339163
vt 0.951936 0.327153
vt 0.971012 0.321051
vt 0.909346 0.708845
vt 0.921189 0.708845
vt 0.906805 0.319087
vt 0.930813 0.293285
vt 0.946407 0.279189
vt 0.864427 0.594957
vt 0.864427 0.638130
vt 0.921189 0.654459
vt 0.883420 0.306643
vt 0.894920 0.270224
vt 0.904028 0.249271
vt 0.909346 0.600074
vt 0.921189 0.600074
vt 0.909346 0.654459
vt 0.854907 0.306950
vt 0.843571 0.262950
vt 0.848179 0.237189
vt 0.909346 0.545689
vt 0.921189 0.545689
vt 0.879960 0.411926
vt 0.886193 0.445000
vt 0.843571 0.447573
vt 0.854822 0.409359
vt 0.890258 0.462925
vt 0.845395 0.467112
vt 0.909346 0.926386
vt 0.921189 0.926386
vt 0.921189 0.980771
vt 0.909346 0.980771
vt 0.864427 0.812498
vt 0.864427 0.855671
vt 0.173785 0.074059
vt 0.205230 0.038273
vt 0.215786 0.058014
vt 0.194349 0.081997
vt 0.250206 0.164525
vt 0.203717 0.157228
vt 0.214552 0.138169
vt 0.245862 0.143014
vt 0.253192 0.031632
vt 0.295866 0.058780
vt 0.276131 0.072835
vt 0.248107 0.053762
vt 0.173327 0.121320
vt 0.194040 0.113947
vt 0.189093 0.183698
vt 0.145052 0.131784
vt 0.157672 0.126978
vt 0.195522 0.171849
vt 0.190477 0.011426
vt 0.259382 0.000863
vt 0.256752 0.014598
vt 0.197204 0.023380
vt 0.145052 0.063348
vt 0.157851 0.067975
vt 0.320778 0.037887
vt 0.310441 0.047700
vt 0.313872 0.158269
vt 0.256420 0.194242
vt 0.253543 0.181092
vt 0.303418 0.150062
vt 0.336724 0.093836
vt 0.323477 0.092822
vt 0.225009 0.119617
vt 0.215131 0.106407
vt 0.235857 0.100410
vt 0.241401 0.121254
vt 0.238123 0.100094
vt 0.259347 0.097150
vt 0.255810 0.113280
vt 0.256174 0.085744
vt 0.237297 0.097101
vt 0.226258 0.078074
vt 0.242895 0.075130
vt 0.235158 0.097932
vt 0.214430 0.089806
vt 0.857966 0.315200
vt 0.881477 0.314591
vt 0.887423 0.333539
vt 0.853010 0.334430
vt 0.447691 0.013777
vt 0.393977 0.013777
vt 0.394505 0.081200
vt 0.447163 0.081200
vt 0.476126 0.049109
vt 0.475867 0.143189
vt 0.901721 0.324882
vt 0.914562 0.341940
vt 0.903690 0.356320
vt 0.884895 0.331353
vt 0.897928 0.396853
vt 0.879004 0.404708
vt 0.868239 0.391165
vt 0.895938 0.379667
vt 0.461638 0.235614
vt 0.383018 0.235614
vt 0.360475 0.143290
vt 0.484182 0.143290
vt 0.395471 0.015034
vt 0.449185 0.015034
vt 0.453549 0.082456
vt 0.391107 0.082456
vt 0.917460 0.362394
vt 0.911925 0.382064
vt 0.894672 0.382131
vt 0.902773 0.353341
vt 0.819344 0.295597
vt 0.817150 0.269457
vt 0.821283 0.268758
vt 0.823535 0.295597
vt 0.810629 0.347146
vt 0.817150 0.321737
vt 0.821283 0.322436
vt 0.814587 0.348524
vt 0.839892 0.119422
vt 0.829853 0.095187
vt 0.878253 0.046787
vt 0.908339 0.119422
vt 0.805618 0.085148
vt 0.805618 0.016700
vt 0.805618 0.153696
vt 0.829853 0.143657
vt 0.878253 0.192057
vt 0.805618 0.222144
vt 0.858190 0.402384
vt 0.479115 0.049109
vt 0.482554 0.144083
vt 0.451145 0.082456
vt 0.393511 0.082456
vt 0.397412 0.015826
vt 0.366782 0.049273
vt 0.362543 0.144290
vt 0.390886 0.083248
vt 0.384959 0.236406
vt 0.463579 0.236406
vt 0.486436 0.144083
vt 0.362102 0.144083
vt 0.365541 0.049109
vt 0.478364 0.049754
vt 0.482272 0.145055
vt 0.481756 0.049273
vt 0.451126 0.015826
vt 0.457652 0.083248
vt 0.485995 0.144290
vt 0.359063 0.143290
vt 0.485593 0.143290
vt 0.365801 0.143189
vt 0.381524 0.234358
vt 0.460144 0.234358
vt 0.478240 0.142034
vt 0.363428 0.142034
vt 0.366292 0.049754
vt 0.362384 0.145055
vt 0.793074 0.906848
vt 0.821641 0.880879
vt 0.868789 0.880879
vt 0.810239 0.924012
vt 0.823570 0.948631
vt 0.850390 0.946164
vt 0.870100 0.882658
vt 0.811550 0.925792
vt 0.767105 0.935414
vt 0.767105 0.982563
vt 0.823570 0.948632
vt 0.870100 0.882659
vt 0.810629 0.244048
vt 0.814587 0.242670
vt 0.767105 0.880879
vt 0.821641 0.880878
vt 0.793074 0.906847
vt 0.834858 0.937344
vt 0.832391 0.964164
vt 0.768885 0.983874
vt 0.812018 0.925323
vt 0.832391 0.964163
vt 0.834858 0.937343
vt 0.812019 0.925323
vt 0.868789 0.880878
vt 0.810238 0.924012
vt 0.767105 0.982562
vt 0.832390 0.964163
vt 0.909346 0.877606
vt 0.903109 0.877606
vt 0.897503 0.872000
vt 0.909346 0.920780
vt 0.915583 0.920780
vt 0.909346 0.660065
vt 0.903109 0.660065
vt 0.897503 0.654459
vt 0.909346 0.703239
vt 0.915583 0.703239
vt 0.903109 0.703239
vt 0.897503 0.708845
vt 0.915583 0.660065
vt 0.903109 0.920779
vt 0.897503 0.926386
vt 0.915583 0.877606
vt 0.858190 0.594957
vt 0.858190 0.638130
vt 0.858190 0.812498
vt 0.858190 0.855671
vt 0.851953 0.638130
vt 0.851953 0.855671
vt 0.851953 0.812498
vt 0.851953 0.594957
vt 0.897503 0.980771
vt 0.897503 0.545689
vt 0.897503 0.600074
vt 0.897503 0.763230
vt 0.897503 0.817615
s 0
usemtl Material.013
f 13/1/1 1/2/1 2/3/1 14/4/1
f 14/4/2 2/3/2 3/5/2 19/6/2
f 19/7/3 3/8/3 4/9/3 24/10/3
f 24/10/4 4/9/4 5/11/4 29/12/4
f 29/12/5 5/11/5 6/13/5 34/14/5
f 34/14/6 6/13/6 7/15/6 39/16/6
f 59/17/7 58/18/7 74/19/7 76/20/7
f 39/16/8 7/15/8 8/21/8 44/22/8
f 44/22/9 8/21/9 1/2/9 13/1/9
f 48/23/10 47/24/10 10/25/10 9/26/10
f 47/24/9 46/27/9 155/28/9 10/25/9
f 178/29/9 45/30/9 156/31/9 171/32/9
f 45/30/9 44/22/9 13/1/9 156/31/9
f 43/33/11 42/34/11 47/24/11 48/23/11
f 42/34/8 41/35/8 46/27/8 47/24/8
f 177/36/8 40/37/8 45/30/8 178/29/8
f 40/37/8 39/16/8 44/22/8 45/30/8
f 38/38/12 37/39/12 42/34/12 43/33/12
f 37/39/6 162/40/6 41/35/6 42/34/6
f 176/41/6 161/42/6 40/37/6 177/36/6
f 161/42/6 34/14/6 39/16/6 40/37/6
f 33/43/13 32/44/13 37/39/13 38/38/13
f 32/44/5 160/45/5 162/40/5 37/39/5
f 30/46/14 35/47/14 169/47/14 167/46/14
f 159/48/5 29/12/5 34/14/5 161/42/5
f 28/49/15 27/50/15 32/44/15 33/43/15
f 27/50/4 26/51/4 160/45/4 32/44/4
f 174/52/4 25/53/4 159/48/4 175/54/4
f 25/53/4 24/10/4 29/12/4 159/48/4
f 23/55/16 22/56/16 27/50/16 28/49/16
f 22/56/3 21/57/3 26/51/3 27/50/3
f 173/58/3 20/59/3 25/53/3 174/52/3
f 20/59/3 19/7/3 24/10/3 25/53/3
f 18/60/17 17/61/17 22/62/17 23/63/17
f 17/61/2 158/64/2 21/65/2 22/62/2
f 172/66/2 157/67/2 20/68/2 173/69/2
f 157/67/2 14/4/2 19/6/2 20/68/2
f 9/26/18 10/25/18 17/61/18 18/60/18
f 10/25/1 155/28/1 158/64/1 17/61/1
f 12/70/14 15/71/14 165/71/14 164/70/14
f 156/31/1 13/1/1 14/4/1 157/67/1
f 63/72/19 62/73/19 78/74/19 79/75/19
f 67/76/20 66/77/20 81/78/20 75/79/20
f 58/18/21 67/76/21 75/79/21 74/19/21
f 69/80/22 59/81/22 76/82/22 77/83/22
f 71/84/23 63/72/23 79/75/23 80/85/23
f 62/73/24 69/80/24 77/83/24 78/74/24
f 66/77/25 71/84/25 80/85/25 81/78/25
f 8/86/26 7/87/26 72/88/26 65/89/26
f 65/89/27 72/88/27 71/84/27 66/77/27
f 5/90/28 4/91/28 70/92/28 61/93/28
f 61/93/29 70/92/29 69/80/29 62/73/29
f 7/87/30 6/94/30 64/95/30 72/88/30
f 72/88/31 64/95/31 63/72/31 71/84/31
f 4/91/32 3/96/32 60/97/32 70/92/32
f 70/92/33 60/97/33 59/81/33 69/80/33
f 2/98/34 1/99/34 68/100/34 57/101/34
f 57/101/35 68/100/35 67/76/35 58/18/35
f 1/99/36 8/86/36 65/89/36 68/100/36
f 68/100/37 65/89/37 66/77/37 67/76/37
f 6/94/38 5/90/38 61/93/38 64/95/38
f 64/95/39 61/93/39 62/73/39 63/72/39
f 3/102/40 2/98/40 57/101/40 60/103/40
f 60/103/41 57/101/41 58/18/41 59/17/41
f 56/104/42 55/105/42 73/106/42 50/107/42
f 50/107/43 73/108/43 51/109/43 49/110/43
f 51/111/44 73/112/44 53/113/44 52/114/44
f 73/115/45 55/105/45 54/116/45 53/113/45
f 50/107/46 49/110/46 74/19/46 75/79/46
f 49/110/47 51/109/47 76/20/47 74/19/47
f 51/111/48 52/114/48 77/83/48 76/82/48
f 52/114/49 53/113/49 78/74/49 77/83/49
f 53/113/50 54/116/50 79/75/50 78/74/50
f 54/116/51 55/105/51 80/85/51 79/75/51
f 55/105/52 56/104/52 81/78/52 80/85/52
f 56/104/53 50/107/53 75/79/53 81/78/53
f 117/117/54 99/118/54 96/119/54 114/120/54
f 99/121/55 104/122/55 110/123/55 115/124/55
f 96/125/56 99/121/56 115/124/56 119/126/56
f 104/127/57 118/128/57 94/129/57 95/130/57
f 121/131/58 103/132/58 98/133/58 108/134/58
f 108/135/59 107/136/59 109/137/59 105/138/59
f 106/139/60 121/140/60 97/141/60 91/142/60
f 101/143/61 106/144/61 107/145/61 93/146/61
f 86/147/62 87/148/62 129/149/62 125/150/62
f 84/151/63 85/152/63 130/153/63 126/154/63
f 82/147/64 83/152/64 131/153/64 124/150/64
f 89/148/65 82/147/65 124/150/65 128/149/65
f 82/155/66 89/156/66 107/157/66 108/158/66
f 89/156/67 88/159/67 93/160/67 107/157/67
f 88/161/68 87/162/68 94/163/68 93/164/68
f 87/162/69 86/155/69 95/158/69 94/163/69
f 86/155/70 85/156/70 96/157/70 95/158/70
f 85/156/71 84/159/71 114/160/71 96/157/71
f 84/161/72 83/162/72 98/163/72 114/164/72
f 83/162/73 82/155/73 108/158/73 98/163/73
f 43/33/74 48/23/74 106/144/74 101/143/74
f 28/49/75 33/43/75 104/127/75 99/118/75
f 48/23/76 9/26/76 121/131/76 106/144/76
f 9/26/77 18/60/77 103/132/77 121/131/77
f 33/43/78 38/38/78 118/128/78 104/127/78
f 18/60/79 23/63/79 117/165/79 103/132/79
f 38/38/80 43/33/80 101/143/80 118/128/80
f 23/55/81 28/49/81 99/118/81 117/117/81
f 121/140/82 108/166/82 105/167/82 97/141/82
f 103/139/83 117/140/83 100/168/83 111/169/83
f 101/170/84 93/171/84 120/172/84 113/173/84
f 93/174/85 94/175/85 122/176/85 120/177/85
f 107/178/86 106/139/86 91/142/86 109/177/86
f 117/140/87 114/179/87 102/180/87 100/168/87
f 94/181/88 118/182/88 92/183/88 122/184/88
f 114/135/89 98/136/89 112/185/89 102/186/89
f 104/122/90 95/178/90 116/187/90 110/123/90
f 95/188/91 96/189/91 119/190/91 116/191/91
f 118/182/92 101/170/92 113/173/92 92/183/92
f 98/192/93 103/139/93 111/169/93 112/193/93
f 115/124/94 110/123/94 116/191/94 119/190/94
f 91/142/95 97/141/95 105/138/95 109/137/95
f 111/169/96 100/168/96 102/186/96 112/185/96
f 92/183/97 113/173/97 120/177/97 122/176/97
f 136/194/98 135/195/98 143/196/98 146/197/98
f 129/198/14 127/199/14 144/200/14 148/201/14
f 132/202/98 136/194/98 146/197/98 151/203/98
f 127/199/14 128/204/14 145/201/14 144/205/14
f 88/206/99 89/148/99 128/149/99 127/207/99
f 83/152/100 84/151/100 126/154/100 131/153/100
f 85/152/101 86/147/101 125/150/101 130/153/101
f 87/148/102 88/206/102 127/207/102 129/149/102
f 136/194/98 132/202/98 90/208/98 135/195/98
f 133/195/98 90/208/98 134/202/98 138/194/98
f 134/195/98 90/208/98 132/202/98 139/194/98
f 135/209/98 90/208/98 133/202/98 137/210/98
f 139/194/98 132/202/98 151/203/98 123/197/98
f 128/211/14 124/212/14 147/213/14 145/214/14
f 134/195/98 139/194/98 123/197/98 142/196/98
f 124/215/14 131/216/14 140/217/14 147/213/14
f 148/201/103 144/200/103 143/218/103 152/197/103
f 150/201/104 149/200/104 153/196/104 154/219/104
f 140/201/105 141/200/105 142/196/105 123/197/105
f 144/205/106 145/201/106 146/197/106 143/196/106
f 145/214/107 147/213/107 151/203/107 146/197/107
f 147/213/108 140/217/108 123/197/108 151/203/108
f 141/213/109 150/214/109 154/219/109 142/203/109
f 149/213/110 148/214/110 152/197/110 153/220/110
f 125/215/14 129/216/14 148/214/14 149/213/14
f 135/209/98 137/210/98 152/197/98 143/218/98
f 130/204/14 125/199/14 149/200/14 150/201/14
f 137/210/98 133/202/98 153/220/98 152/197/98
f 126/221/14 130/216/14 150/214/14 141/213/14
f 133/195/98 138/194/98 154/219/98 153/196/98
f 131/204/14 126/199/14 141/200/14 140/201/14
f 138/194/98 134/202/98 142/203/98 154/219/98
f 179/222/1 11/223/1 155/224/1 171/32/1
f 180/225/1 15/226/1 157/67/1 172/66/1
f 181/227/5 31/228/5 160/229/5 175/54/5
f 182/230/5 35/231/5 161/42/5 176/41/5
f 31/228/5 36/232/5 162/233/5 160/229/5
f 35/231/5 30/234/5 159/48/5 161/42/5
f 11/223/1 16/235/1 158/236/1 155/224/1
f 15/226/1 12/237/1 156/31/1 157/67/1
f 185/238/111 167/46/111 169/47/111 186/239/111
f 183/240/112 164/70/112 165/71/112 184/241/112
f 182/239/8 36/242/8 170/242/8 186/239/8
f 180/241/3 16/243/3 166/243/3 184/241/3
f 16/243/98 11/244/98 163/244/98 166/243/98
f 36/242/98 31/245/98 168/245/98 170/242/98
f 181/238/3 30/46/3 167/46/3 185/238/3
f 179/240/8 12/70/8 164/70/8 183/240/8
f 11/244/8 179/240/8 183/240/8 163/244/8
f 31/245/3 181/238/3 185/238/3 168/245/3
f 15/71/3 180/241/3 184/241/3 165/71/3
f 35/47/8 182/239/8 186/239/8 169/47/8
f 163/244/113 183/240/113 184/241/113 166/243/113
f 168/245/114 185/238/114 186/239/114 170/242/114
f 36/232/5 182/230/5 176/41/5 162/233/5
f 30/234/5 181/227/5 175/54/5 159/48/5
f 16/235/1 180/225/1 172/66/1 158/236/1
f 12/237/1 179/222/1 171/32/1 156/31/1
f 158/236/2 172/66/2 173/69/2 21/246/2
f 21/247/3 173/58/3 174/52/3 26/248/3
f 26/248/4 174/52/4 175/54/4 160/229/4
f 162/233/6 176/41/6 177/36/6 41/249/6
f 41/249/8 177/36/8 178/29/8 46/250/8
f 46/250/9 178/29/9 171/32/9 155/224/9
