# Blender 4.2.1 LTS
# www.blender.org
mtllib Weapon_CruiseMissile.mtl
o CruiseTest
v 1.240658 0.058729 -0.141783
v 1.240658 -0.058728 -0.141783
v 1.240658 -0.141783 -0.058728
v 1.240658 -0.141783 0.058729
v 1.240658 -0.058728 0.141783
v 1.240658 0.058729 0.141783
v 1.240658 0.141783 0.058729
v 1.240658 0.141783 -0.058728
v -0.908217 0.031453 -0.075935
v -0.413553 0.058728 -0.141783
v 0.097880 0.029506 -0.141783
v 0.315673 0.029506 -0.141783
v 0.827105 0.058729 -0.141783
v 0.827105 -0.058728 -0.141783
v 0.315672 -0.029506 -0.141783
v 0.097880 -0.029506 -0.141783
v -0.413553 -0.058729 -0.141783
v -0.908217 -0.031454 -0.075935
v 0.827105 -0.141783 -0.058728
v 0.413553 -0.141783 -0.058728
v -0.000000 -0.141783 -0.058728
v -0.413553 -0.141783 -0.058729
v -0.908217 -0.075935 -0.031454
v 0.827105 -0.141783 0.058729
v 0.413553 -0.141783 0.058729
v -0.000000 -0.141783 0.058728
v -0.413553 -0.141783 0.058728
v -0.908217 -0.075935 0.031453
v 0.827105 -0.058728 0.141783
v 0.315672 -0.029506 0.141783
v 0.097880 -0.029506 0.141783
v -0.413553 -0.058729 0.141783
v -0.908217 -0.031454 0.075935
v 0.827105 0.058729 0.141783
v 0.315672 0.029506 0.141783
v 0.097880 0.029506 0.141783
v -0.413553 0.058728 0.141783
v -0.908217 0.031453 0.075935
v 0.827105 0.141783 0.058729
v 0.413553 0.141783 0.058729
v -0.000000 0.141783 0.058728
v -0.413553 0.141783 0.058728
v -0.908217 0.075935 0.031453
v 0.827105 0.141783 -0.058728
v 0.413553 0.141783 -0.058728
v -0.000000 0.141783 -0.058728
v -0.413553 0.141783 -0.058728
v -0.908217 0.075935 -0.031454
v 1.622115 -0.014208 -0.034302
v 1.622115 0.013605 -0.032845
v 1.622115 -0.032845 -0.013605
v 1.622115 -0.034302 0.014208
v 1.622115 -0.013605 0.032845
v 1.622115 0.014208 0.034302
v 1.622115 0.032845 0.013605
v 1.622115 0.034302 -0.014208
v 1.375433 -0.052762 -0.127378
v 1.470269 -0.042287 -0.102091
v 1.470269 -0.102091 -0.042287
v 1.375433 -0.127378 -0.052762
v 1.375433 -0.052762 0.127378
v 1.470269 -0.042287 0.102091
v 1.470269 0.042288 0.102091
v 1.375433 0.052762 0.127378
v 1.375433 0.127378 -0.052762
v 1.470269 0.102091 -0.042287
v 1.470269 0.042288 -0.102091
v 1.375433 0.052762 -0.127378
v 1.470269 -0.102091 0.042288
v 1.375433 -0.127378 0.052762
v 1.470269 0.102091 0.042288
v 1.375433 0.127378 0.052762
v 1.644983 0.000000 -0.000001
v 1.558692 -0.027934 -0.067440
v 1.558692 0.027935 -0.067440
v 1.558692 -0.067440 -0.027935
v 1.558692 -0.067440 0.027935
v 1.558692 -0.027934 0.067440
v 1.558692 0.027935 0.067440
v 1.558692 0.067440 0.027935
v 1.558692 0.067440 -0.027935
v -1.222108 0.012331 -0.029770
v -1.222108 -0.012331 -0.029770
v -1.222108 -0.029770 -0.012331
v -1.222108 -0.029770 0.012331
v -1.222108 -0.012331 0.029770
v -1.222108 0.012331 0.029770
v -1.222108 0.029770 0.012331
v -1.222108 0.029770 -0.012331
v -1.269994 -0.000000 0.000000
v -1.074375 0.107965 -0.066455
v -1.074375 0.065017 0.109403
v -1.223285 0.089223 0.036957
v -1.223285 0.036957 0.089223
v -1.223285 -0.036957 0.089223
v -1.223285 -0.089223 0.036957
v -1.074375 0.066455 -0.107966
v -1.223285 -0.036957 -0.089223
v -0.983180 -0.060958 0.025249
v -1.074375 -0.106367 -0.068053
v -0.983180 0.060958 0.025249
v -1.256056 -0.166458 -0.082341
v -0.983180 -0.025250 -0.060958
v -0.983180 -0.025250 0.060958
v -1.256056 0.083280 -0.165519
v -0.983180 0.060958 -0.025250
v -1.223285 0.089223 -0.036957
v -1.223285 0.036957 -0.089223
v -1.256056 0.165519 -0.083280
v -1.074375 -0.069707 0.104713
v -1.074375 -0.068053 -0.106367
v -1.256056 -0.082341 -0.166458
v -1.074375 0.109403 0.065017
v -1.223285 -0.089223 -0.036957
v -1.074375 -0.104713 0.069707
v -1.256056 -0.086236 0.162563
v -0.983180 -0.060958 -0.025250
v -0.983180 0.025249 0.060958
v -1.256056 -0.162563 0.086236
v -1.256056 0.165728 0.083071
v -0.983180 0.025249 -0.060958
v -1.256056 0.083071 0.165728
v -1.269994 -0.021947 -0.052984
v -1.253192 0.012661 -0.030566
v -1.253192 -0.012661 0.030566
v -1.253192 -0.030566 -0.012661
v -1.253192 0.030566 0.012661
v -1.253192 0.030566 -0.012661
v -1.253192 0.012661 0.030566
v -1.253192 -0.030566 0.012661
v -1.253192 -0.012661 -0.030566
v -1.269994 0.019621 -0.047369
v -1.269994 -0.019621 0.047369
v -1.269994 -0.047369 -0.019621
v -1.269994 0.047369 0.019621
v -1.269994 0.031900 -0.013213
v -1.269994 0.013213 0.031900
v -1.269994 -0.031900 0.013213
v -1.269994 -0.013213 -0.031900
v -1.253192 -0.021947 -0.052984
v -1.253192 -0.088322 -0.036584
v -1.269994 -0.088322 -0.036584
v -1.269994 0.088322 0.036584
v -1.253192 0.088322 0.036584
v -1.253192 0.052984 -0.021947
v -1.269994 0.052984 -0.021947
v -1.253192 0.036584 -0.088322
v -1.253192 0.021947 0.052984
v -1.253192 -0.036584 0.088322
v -1.253192 -0.052984 0.021947
v -1.269994 0.036584 -0.088322
v -1.269994 0.021947 0.052984
v -1.269994 -0.036584 0.088322
v -1.269994 -0.052984 0.021947
v 0.000000 0.058728 -0.141783
v 0.413553 0.058729 -0.141783
v 0.413553 -0.058728 -0.141783
v -0.000000 -0.058728 -0.141783
v 0.413553 -0.058728 0.141783
v -0.000000 -0.058728 0.141783
v 0.413553 0.058729 0.141783
v -0.000000 0.058728 0.141783
v 0.097880 0.029506 -0.577044
v 0.315673 0.029506 -0.577044
v 0.315672 -0.029506 -0.577044
v 0.097880 -0.029506 -0.577044
v 0.315672 -0.029506 0.577044
v 0.097880 -0.029506 0.577044
v 0.315672 0.029506 0.577044
v 0.097880 0.029506 0.577044
v 0.206776 0.058729 -0.141783
v 0.206776 -0.058728 -0.141783
v 0.206776 -0.141783 -0.058728
v 0.206776 -0.141783 0.058728
v 0.206776 -0.058728 0.141783
v 0.206776 0.058728 0.141783
v 0.206776 0.141783 0.058729
v 0.206776 0.141783 -0.058728
v 0.206776 0.029506 -0.141783
v 0.206776 -0.029506 -0.141783
v 0.206776 -0.029506 0.141783
v 0.206776 0.029506 0.141783
v 0.206776 0.029506 -0.655515
v 0.206776 -0.029506 -0.655515
v 0.206776 -0.029506 0.655515
v 0.206776 0.029506 0.655515
vn -0.0000 -0.0000 -1.0000
vn -0.0000 -0.7071 -0.7071
vn -0.0000 -1.0000 -0.0000
vn -0.0000 -0.7071 0.7071
vn -0.0000 -0.0000 1.0000
vn -0.0000 0.7071 0.7071
vn 0.3649 -0.6584 -0.6584
vn -0.0000 1.0000 -0.0000
vn -0.0000 0.7071 -0.7071
vn -0.1320 0.7009 -0.7009
vn -0.1320 0.9913 -0.0000
vn -0.1320 0.7009 0.7009
vn -0.1320 -0.0000 0.9913
vn 1.0000 -0.0000 -0.0000
vn -0.1320 -0.7009 0.7009
vn -0.1320 -0.9913 -0.0000
vn -0.1320 -0.7009 -0.7009
vn -0.1320 -0.0000 -0.9913
vn 0.3649 -0.0000 0.9311
vn 0.3649 0.6584 -0.6584
vn 0.3649 -0.0000 -0.9311
vn 0.3649 -0.9311 -0.0000
vn 0.3649 0.6584 0.6584
vn 0.3649 -0.6584 0.6584
vn 0.3649 0.9311 -0.0000
vn 0.1063 0.9943 -0.0000
vn 0.2576 0.9662 -0.0000
vn 0.1063 -0.7031 0.7031
vn 0.2576 -0.6832 0.6832
vn 0.1063 0.7031 0.7031
vn 0.2576 0.6832 0.6832
vn 0.1063 -0.9943 -0.0000
vn 0.2576 -0.9662 -0.0000
vn 0.1063 -0.0000 -0.9943
vn 0.2576 -0.0000 -0.9662
vn 0.1063 0.7031 -0.7031
vn 0.2576 0.6832 -0.6832
vn 0.1063 -0.0000 0.9943
vn 0.2576 -0.0000 0.9662
vn 0.1063 -0.7031 -0.7031
vn 0.2576 -0.6832 -0.6832
vn 0.8514 0.4845 -0.2007
vn 0.8514 -0.2007 -0.4845
vn 0.8515 -0.4845 0.2007
vn 0.8515 0.2007 0.4845
vn 0.4710 0.0154 -0.8820
vn 0.4710 -0.6345 -0.6128
vn 0.4710 -0.8820 -0.0154
vn 0.4710 -0.6128 0.6345
vn 0.4710 -0.0154 0.8820
vn 0.4710 0.6345 0.6128
vn 0.4710 0.8820 0.0154
vn 0.4710 0.6128 -0.6345
vn 0.1169 -0.9931 -0.0000
vn 0.5646 -0.5836 0.5836
vn 0.0897 -0.6786 -0.7290
vn 0.1169 -0.0000 0.9931
vn 0.1169 -0.0000 -0.9931
vn -0.9354 -0.2500 0.2500
vn 0.5646 0.5836 -0.5836
vn 0.1169 0.9931 -0.0000
vn 0.0256 -0.0000 0.9997
vn 0.0256 -0.9997 -0.0000
vn 0.0256 -0.0000 -0.9997
vn 0.0256 0.7069 -0.7069
vn -0.9998 -0.0140 0.0140
vn -0.9998 -0.0198 -0.0000
vn -0.9998 -0.0140 -0.0140
vn -0.9998 -0.0000 -0.0198
vn -0.9998 0.0140 -0.0140
vn -0.9998 0.0198 -0.0000
vn -0.9998 0.0140 0.0140
vn -0.9998 -0.0000 0.0198
vn -0.1959 0.9806 -0.0000
vn -0.1959 -0.6934 0.6934
vn -0.1959 0.6934 -0.6934
vn -0.1959 -0.0000 -0.9806
vn -0.1959 -0.0000 0.9806
vn -0.1959 -0.6934 -0.6934
vn -0.1959 0.6934 0.6934
vn -0.1959 -0.9806 -0.0000
vn 0.0749 -0.7761 -0.6262
vn 0.5646 -0.5836 -0.5836
vn 0.0664 0.6091 -0.7903
vn -0.9354 -0.2500 -0.2500
vn 0.0749 0.6262 0.7761
vn 0.0864 -0.6377 0.7654
vn 0.0664 -0.7903 0.6091
vn -0.9354 0.2500 0.2500
vn 0.0897 0.7290 0.6786
vn -0.9354 0.2500 -0.2500
vn 0.5646 0.5836 0.5836
vn 0.0864 0.7654 -0.6377
vn 0.2781 -0.6792 0.6792
vn 0.2781 0.6792 -0.6792
vn 0.2781 -0.6792 -0.6792
vn 0.2781 0.6792 0.6792
vn -1.0000 -0.0000 -0.0000
vn 0.0256 0.9997 -0.0000
vn 0.0256 -0.7069 -0.7069
vn 0.0256 -0.7069 0.7069
vn 0.0256 0.7069 0.7069
vn -0.0000 0.2399 0.9708
vn -0.0000 -0.9708 0.2399
vn -0.0000 -0.2399 -0.9708
vn -0.0000 0.8561 -0.5169
vn -0.0000 0.9708 -0.2399
vn -0.0000 -0.5169 -0.8561
vn -0.0000 -0.8561 0.5169
vn -0.0000 0.5169 0.8561
vn 0.5846 -0.0000 0.8113
vn 0.5846 -0.0000 -0.8113
vn -0.5846 -0.0000 -0.8113
vn -0.5846 -0.0000 0.8113
vt 0.944875 0.872000
vt 0.968561 0.872000
vt 0.968561 0.926386
vt 0.944875 0.926386
vt 0.968561 0.980771
vt 0.944875 0.980771
vt 0.944875 0.545689
vt 0.968561 0.545689
vt 0.968561 0.600074
vt 0.944875 0.600074
vt 0.968561 0.654459
vt 0.944875 0.654459
vt 0.968561 0.708845
vt 0.944875 0.708845
vt 0.968561 0.763230
vt 0.944875 0.763230
vt 0.305620 0.093257
vt 0.290360 0.139709
vt 0.272903 0.126209
vt 0.282264 0.094707
vt 0.968561 0.817615
vt 0.944875 0.817615
vt 0.918016 0.385520
vt 0.946243 0.401588
vt 0.920929 0.429464
vt 0.902076 0.402852
vt 0.962527 0.411761
vt 0.931402 0.445207
vt 0.909346 0.817615
vt 0.921189 0.817615
vt 0.921189 0.872000
vt 0.909346 0.872000
vt 0.924772 0.362899
vt 0.957441 0.365334
vt 0.976778 0.367686
vt 0.909346 0.763230
vt 0.921189 0.763230
vt 0.921272 0.339163
vt 0.951936 0.327153
vt 0.971012 0.321051
vt 0.909346 0.708845
vt 0.921189 0.708845
vt 0.906805 0.319087
vt 0.930813 0.293285
vt 0.946407 0.279189
vt 0.864427 0.594957
vt 0.864427 0.638130
vt 0.921189 0.654459
vt 0.883420 0.306643
vt 0.894920 0.270224
vt 0.904028 0.249271
vt 0.909346 0.600074
vt 0.921189 0.600074
vt 0.909346 0.654459
vt 0.854907 0.306950
vt 0.843571 0.262950
vt 0.848179 0.237189
vt 0.909346 0.545689
vt 0.921189 0.545689
vt 0.879960 0.411926
vt 0.886193 0.445000
vt 0.843571 0.447573
vt 0.854822 0.409359
vt 0.890258 0.462925
vt 0.845395 0.467112
vt 0.909346 0.926386
vt 0.921189 0.926386
vt 0.921189 0.980771
vt 0.909346 0.980771
vt 0.864427 0.812498
vt 0.864427 0.855671
vt 0.173785 0.074059
vt 0.205230 0.038273
vt 0.215786 0.058014
vt 0.194349 0.081997
vt 0.250206 0.164525
vt 0.203717 0.157228
vt 0.214552 0.138169
vt 0.245862 0.143014
vt 0.253192 0.031632
vt 0.295866 0.058780
vt 0.276131 0.072835
vt 0.248107 0.053762
vt 0.173327 0.121320
vt 0.194040 0.113947
vt 0.189093 0.183698
vt 0.145052 0.131784
vt 0.157672 0.126978
vt 0.195522 0.171849
vt 0.190477 0.011426
vt 0.259382 0.000863
vt 0.256752 0.014598
vt 0.197204 0.023380
vt 0.145052 0.063348
vt 0.157851 0.067975
vt 0.320778 0.037887
vt 0.310441 0.047700
vt 0.313872 0.158269
vt 0.256420 0.194242
vt 0.253543 0.181092
vt 0.303418 0.150062
vt 0.336724 0.093836
vt 0.323477 0.092822
vt 0.225009 0.119617
vt 0.215131 0.106407
vt 0.235857 0.100410
vt 0.241401 0.121254
vt 0.238123 0.100094
vt 0.259347 0.097150
vt 0.255810 0.113280
vt 0.256174 0.085744
vt 0.237297 0.097101
vt 0.226258 0.078074
vt 0.242895 0.075130
vt 0.235158 0.097932
vt 0.214430 0.089806
vt 0.857966 0.315200
vt 0.881477 0.314591
vt 0.887423 0.333539
vt 0.853010 0.334430
vt 0.447691 0.013777
vt 0.393977 0.013777
vt 0.394505 0.081200
vt 0.447163 0.081200
vt 0.476126 0.049109
vt 0.475867 0.143189
vt 0.901721 0.324882
vt 0.914562 0.341940
vt 0.903690 0.356320
vt 0.884895 0.331353
vt 0.897928 0.396853
vt 0.879004 0.404708
vt 0.868239 0.391165
vt 0.895938 0.379667
vt 0.461638 0.235614
vt 0.383018 0.235614
vt 0.360475 0.143290
vt 0.484182 0.143290
vt 0.395471 0.015034
vt 0.449185 0.015034
vt 0.453549 0.082456
vt 0.391107 0.082456
vt 0.917460 0.362394
vt 0.911925 0.382064
vt 0.894672 0.382131
vt 0.902773 0.353341
vt 0.819344 0.295597
vt 0.817150 0.269457
vt 0.821283 0.268758
vt 0.823535 0.295597
vt 0.810629 0.347146
vt 0.817150 0.321737
vt 0.821283 0.322436
vt 0.814587 0.348524
vt 0.819344 0.295597
vt 0.823535 0.295597
vt 0.839892 0.119422
vt 0.829853 0.095187
vt 0.878253 0.046787
vt 0.908339 0.119422
vt 0.805618 0.085148
vt 0.805618 0.016700
vt 0.805618 0.153696
vt 0.829853 0.143657
vt 0.878253 0.192057
vt 0.805618 0.222144
vt 0.839892 0.119422
vt 0.908339 0.119422
vt 0.829853 0.095187
vt 0.878253 0.046787
vt 0.805618 0.016700
vt 0.829853 0.143657
vt 0.878253 0.192057
vt 0.858190 0.402384
vt 0.479115 0.049109
vt 0.482554 0.144083
vt 0.449185 0.015034
vt 0.451145 0.082456
vt 0.393511 0.082456
vt 0.397412 0.015826
vt 0.366782 0.049273
vt 0.362543 0.144290
vt 0.390886 0.083248
vt 0.384959 0.236406
vt 0.463579 0.236406
vt 0.486436 0.144083
vt 0.362102 0.144083
vt 0.365541 0.049109
vt 0.478364 0.049754
vt 0.482272 0.145055
vt 0.481756 0.049273
vt 0.451126 0.015826
vt 0.457652 0.083248
vt 0.485995 0.144290
vt 0.461638 0.235614
vt 0.383018 0.235614
vt 0.359063 0.143290
vt 0.485593 0.143290
vt 0.365801 0.143189
vt 0.381524 0.234358
vt 0.460144 0.234358
vt 0.478240 0.142034
vt 0.363428 0.142034
vt 0.366292 0.049754
vt 0.362384 0.145055
vt 0.793074 0.906848
vt 0.821641 0.880879
vt 0.868789 0.880879
vt 0.810239 0.924012
vt 0.823570 0.948631
vt 0.850390 0.946164
vt 0.870100 0.882658
vt 0.811550 0.925792
vt 0.767105 0.935414
vt 0.767105 0.982563
vt 0.850390 0.946164
vt 0.823570 0.948632
vt 0.811550 0.925792
vt 0.870100 0.882659
vt 0.810629 0.244048
vt 0.814587 0.242670
vt 0.810629 0.347146
vt 0.814587 0.348524
vt 0.810629 0.244048
vt 0.814587 0.242670
vt 0.767105 0.880879
vt 0.821641 0.880879
vt 0.767105 0.935414
vt 0.793074 0.906848
vt 0.821641 0.880879
vt 0.767105 0.935414
vt 0.793074 0.906848
vt 0.821641 0.880878
vt 0.767105 0.935414
vt 0.793074 0.906847
vt 0.767105 0.982563
vt 0.810239 0.924012
vt 0.834858 0.937344
vt 0.832391 0.964164
vt 0.768885 0.983874
vt 0.812018 0.925323
vt 0.868789 0.880879
vt 0.832391 0.964163
vt 0.834858 0.937343
vt 0.812019 0.925323
vt 0.768885 0.983874
vt 0.868789 0.880878
vt 0.810239 0.924012
vt 0.811550 0.925792
vt 0.870100 0.882658
vt 0.868789 0.880879
vt 0.810238 0.924012
vt 0.811550 0.925792
vt 0.870100 0.882658
vt 0.768885 0.983874
vt 0.812018 0.925323
vt 0.767105 0.982563
vt 0.768885 0.983874
vt 0.812018 0.925323
vt 0.767105 0.982562
vt 0.832391 0.964163
vt 0.834858 0.937343
vt 0.823570 0.948632
vt 0.850390 0.946164
vt 0.832390 0.964163
vt 0.834858 0.937343
vt 0.823570 0.948632
vt 0.850390 0.946164
vt 0.909346 0.877606
vt 0.903109 0.877606
vt 0.897503 0.872000
vt 0.909346 0.920780
vt 0.915583 0.920780
vt 0.909346 0.660065
vt 0.903109 0.660065
vt 0.897503 0.654459
vt 0.909346 0.703239
vt 0.915583 0.703239
vt 0.903109 0.703239
vt 0.897503 0.708845
vt 0.915583 0.660065
vt 0.903109 0.920779
vt 0.897503 0.926386
vt 0.915583 0.877606
vt 0.858190 0.594957
vt 0.858190 0.638130
vt 0.858190 0.812498
vt 0.858190 0.855671
vt 0.851953 0.638130
vt 0.851953 0.855671
vt 0.851953 0.812498
vt 0.851953 0.594957
vt 0.897503 0.980771
vt 0.897503 0.545689
vt 0.897503 0.600074
vt 0.897503 0.763230
vt 0.897503 0.817615
s 0
usemtl Material.013
f 13/1/1 1/2/1 2/3/1 14/4/1
f 14/4/2 2/3/2 3/5/2 19/6/2
f 19/7/3 3/8/3 4/9/3 24/10/3
f 24/10/4 4/9/4 5/11/4 29/12/4
f 29/12/5 5/11/5 6/13/5 34/14/5
f 34/14/6 6/13/6 7/15/6 39/16/6
f 59/17/7 58/18/7 74/19/7 76/20/7
f 39/16/8 7/15/8 8/21/8 44/22/8
f 44/22/9 8/21/9 1/2/9 13/1/9
f 48/23/10 47/24/10 10/25/10 9/26/10
f 47/24/9 46/27/9 155/28/9 10/25/9
f 178/29/9 45/30/9 156/31/9 171/32/9
f 45/30/9 44/22/9 13/1/9 156/31/9
f 43/33/11 42/34/11 47/24/11 48/23/11
f 42/34/8 41/35/8 46/27/8 47/24/8
f 177/36/8 40/37/8 45/30/8 178/29/8
f 40/37/8 39/16/8 44/22/8 45/30/8
f 38/38/12 37/39/12 42/34/12 43/33/12
f 37/39/6 162/40/6 41/35/6 42/34/6
f 176/41/6 161/42/6 40/37/6 177/36/6
f 161/42/6 34/14/6 39/16/6 40/37/6
f 33/43/13 32/44/13 37/39/13 38/38/13
f 32/44/5 160/45/5 162/40/5 37/39/5
f 30/46/14 35/47/14 169/47/14 167/46/14
f 159/48/5 29/12/5 34/14/5 161/42/5
f 28/49/15 27/50/15 32/44/15 33/43/15
f 27/50/4 26/51/4 160/45/4 32/44/4
f 174/52/4 25/53/4 159/48/4 175/54/4
f 25/53/4 24/10/4 29/12/4 159/48/4
f 23/55/16 22/56/16 27/50/16 28/49/16
f 22/56/3 21/57/3 26/51/3 27/50/3
f 173/58/3 20/59/3 25/53/3 174/52/3
f 20/59/3 19/7/3 24/10/3 25/53/3
f 18/60/17 17/61/17 22/62/17 23/63/17
f 17/61/2 158/64/2 21/65/2 22/62/2
f 172/66/2 157/67/2 20/68/2 173/69/2
f 157/67/2 14/4/2 19/6/2 20/68/2
f 9/26/18 10/25/18 17/61/18 18/60/18
f 10/25/1 155/28/1 158/64/1 17/61/1
f 12/70/14 15/71/14 165/71/14 164/70/14
f 156/31/1 13/1/1 14/4/1 157/67/1
f 63/72/19 62/73/19 78/74/19 79/75/19
f 67/76/20 66/77/20 81/78/20 75/79/20
f 58/18/21 67/76/21 75/79/21 74/19/21
f 69/80/22 59/81/22 76/82/22 77/83/22
f 71/84/23 63/72/23 79/75/23 80/85/23
f 62/73/24 69/80/24 77/83/24 78/74/24
f 66/77/25 71/84/25 80/85/25 81/78/25
f 8/86/26 7/87/26 72/88/26 65/89/26
f 65/89/27 72/88/27 71/84/27 66/77/27
f 5/90/28 4/91/28 70/92/28 61/93/28
f 61/93/29 70/92/29 69/80/29 62/73/29
f 7/87/30 6/94/30 64/95/30 72/88/30
f 72/88/31 64/95/31 63/72/31 71/84/31
f 4/91/32 3/96/32 60/97/32 70/92/32
f 70/92/33 60/97/33 59/81/33 69/80/33
f 2/98/34 1/99/34 68/100/34 57/101/34
f 57/101/35 68/100/35 67/76/35 58/18/35
f 1/99/36 8/86/36 65/89/36 68/100/36
f 68/100/37 65/89/37 66/77/37 67/76/37
f 6/94/38 5/90/38 61/93/38 64/95/38
f 64/95/39 61/93/39 62/73/39 63/72/39
f 3/102/40 2/98/40 57/101/40 60/103/40
f 60/103/41 57/101/41 58/18/41 59/17/41
f 56/104/42 55/105/42 73/106/42 50/107/42
f 50/107/43 73/108/43 51/109/43 49/110/43
f 51/111/44 73/112/44 53/113/44 52/114/44
f 73/115/45 55/105/45 54/116/45 53/113/45
f 50/107/46 49/110/46 74/19/46 75/79/46
f 49/110/47 51/109/47 76/20/47 74/19/47
f 51/111/48 52/114/48 77/83/48 76/82/48
f 52/114/49 53/113/49 78/74/49 77/83/49
f 53/113/50 54/116/50 79/75/50 78/74/50
f 54/116/51 55/105/51 80/85/51 79/75/51
f 55/105/52 56/104/52 81/78/52 80/85/52
f 56/104/53 50/107/53 75/79/53 81/78/53
f 117/117/54 99/118/54 96/119/54 114/120/54
f 99/121/55 104/122/55 110/123/55 115/124/55
f 96/125/56 99/121/56 115/124/56 119/126/56
f 104/127/57 118/128/57 94/129/57 95/130/57
f 121/131/58 103/132/58 98/133/58 108/134/58
f 108/135/59 107/136/59 109/137/59 105/138/59
f 106/139/60 121/140/60 97/141/60 91/142/60
f 101/143/61 106/144/61 107/145/61 93/146/61
f 86/147/62 87/148/62 129/149/62 125/150/62
f 84/151/63 85/152/63 130/153/63 126/154/63
f 82/155/64 83/152/64 131/153/64 124/156/64
f 89/148/65 82/155/65 124/156/65 128/149/65
f 82/157/66 89/158/66 107/159/66 108/160/66
f 89/158/67 88/161/67 93/162/67 107/159/67
f 88/163/68 87/164/68 94/165/68 93/166/68
f 87/164/69 86/167/69 95/168/69 94/165/69
f 86/167/70 85/169/70 96/170/70 95/168/70
f 85/169/71 84/161/71 114/171/71 96/170/71
f 84/163/72 83/172/72 98/173/72 114/166/72
f 83/172/73 82/157/73 108/160/73 98/173/73
f 43/33/74 48/23/74 106/144/74 101/143/74
f 28/49/75 33/43/75 104/127/75 99/118/75
f 48/23/76 9/26/76 121/131/76 106/144/76
f 9/26/77 18/60/77 103/132/77 121/131/77
f 33/43/78 38/38/78 118/128/78 104/127/78
f 18/60/79 23/63/79 117/174/79 103/132/79
f 38/38/80 43/33/80 101/143/80 118/128/80
f 23/55/81 28/49/81 99/118/81 117/117/81
f 121/140/82 108/175/82 105/176/82 97/141/82
f 103/139/83 117/177/83 100/178/83 111/179/83
f 101/180/84 93/181/84 120/182/84 113/183/84
f 93/184/85 94/185/85 122/186/85 120/187/85
f 107/188/86 106/139/86 91/142/86 109/187/86
f 117/177/87 114/189/87 102/190/87 100/178/87
f 94/191/88 118/192/88 92/193/88 122/194/88
f 114/195/89 98/196/89 112/197/89 102/198/89
f 104/122/90 95/188/90 116/199/90 110/123/90
f 95/200/91 96/201/91 119/202/91 116/203/91
f 118/192/92 101/180/92 113/183/92 92/193/92
f 98/204/93 103/139/93 111/179/93 112/205/93
f 115/124/94 110/123/94 116/203/94 119/202/94
f 91/142/95 97/141/95 105/138/95 109/137/95
f 111/179/96 100/178/96 102/198/96 112/197/96
f 92/193/97 113/183/97 120/187/97 122/186/97
f 136/206/98 135/207/98 143/208/98 146/209/98
f 129/210/14 127/211/14 144/212/14 148/213/14
f 132/214/98 136/206/98 146/209/98 151/215/98
f 127/216/14 128/217/14 145/218/14 144/219/14
f 88/220/99 89/148/99 128/149/99 127/221/99
f 83/152/100 84/222/100 126/223/100 131/153/100
f 85/152/101 86/147/101 125/150/101 130/153/101
f 87/148/102 88/224/102 127/225/102 129/149/102
f 136/206/98 132/214/98 90/226/98 135/207/98
f 133/227/98 90/226/98 134/228/98 138/229/98
f 134/230/98 90/226/98 132/231/98 139/232/98
f 135/233/98 90/226/98 133/234/98 137/235/98
f 139/232/98 132/231/98 151/236/98 123/237/98
f 128/238/14 124/239/14 147/240/14 145/241/14
f 134/230/98 139/232/98 123/237/98 142/242/98
f 124/243/14 131/244/14 140/245/14 147/246/14
f 148/213/103 144/212/103 143/247/103 152/248/103
f 150/249/104 149/250/104 153/251/104 154/252/104
f 140/253/105 141/254/105 142/242/105 123/237/105
f 144/219/106 145/218/106 146/209/106 143/208/106
f 145/241/107 147/240/107 151/215/107 146/209/107
f 147/246/108 140/245/108 123/237/108 151/236/108
f 141/255/109 150/256/109 154/252/109 142/257/109
f 149/258/110 148/259/110 152/248/110 153/260/110
f 125/261/14 129/262/14 148/259/14 149/258/14
f 135/233/98 137/235/98 152/248/98 143/247/98
f 130/263/14 125/264/14 149/250/14 150/249/14
f 137/235/98 133/234/98 153/260/98 152/248/98
f 126/265/14 130/266/14 150/256/14 141/255/14
f 133/227/98 138/229/98 154/252/98 153/251/98
f 131/267/14 126/268/14 141/254/14 140/253/14
f 138/229/98 134/228/98 142/257/98 154/252/98
f 179/269/1 11/270/1 155/271/1 171/32/1
f 180/272/1 15/273/1 157/67/1 172/66/1
f 181/274/5 31/275/5 160/276/5 175/54/5
f 182/277/5 35/278/5 161/42/5 176/41/5
f 31/275/5 36/279/5 162/280/5 160/276/5
f 35/278/5 30/281/5 159/48/5 161/42/5
f 11/270/1 16/282/1 158/283/1 155/271/1
f 15/273/1 12/284/1 156/31/1 157/67/1
f 185/285/111 167/46/111 169/47/111 186/286/111
f 183/287/112 164/70/112 165/71/112 184/288/112
f 182/286/8 36/289/8 170/289/8 186/286/8
f 180/288/3 16/290/3 166/290/3 184/288/3
f 16/290/98 11/291/98 163/291/98 166/290/98
f 36/289/98 31/292/98 168/292/98 170/289/98
f 181/285/3 30/46/3 167/46/3 185/285/3
f 179/287/8 12/70/8 164/70/8 183/287/8
f 11/291/8 179/287/8 183/287/8 163/291/8
f 31/292/3 181/285/3 185/285/3 168/292/3
f 15/71/3 180/288/3 184/288/3 165/71/3
f 35/47/8 182/286/8 186/286/8 169/47/8
f 163/291/113 183/287/113 184/288/113 166/290/113
f 168/292/114 185/285/114 186/286/114 170/289/114
f 36/279/5 182/277/5 176/41/5 162/280/5
f 30/281/5 181/274/5 175/54/5 159/48/5
f 16/282/1 180/272/1 172/66/1 158/283/1
f 12/284/1 179/269/1 171/32/1 156/31/1
f 158/283/2 172/66/2 173/69/2 21/293/2
f 21/294/3 173/58/3 174/52/3 26/295/3
f 26/295/4 174/52/4 175/54/4 160/276/4
f 162/280/6 176/41/6 177/36/6 41/296/6
f 41/296/8 177/36/8 178/29/8 46/297/8
f 46/297/9 178/29/9 171/32/9 155/271/9
