# Blender 4.0.0
# www.blender.org
mtllib Weapon_CannonAmmo.mtl
o CannonShell
v -0.124846 -0.000000 0.000000
v 0.182207 0.000000 -0.000000
v -0.124846 -0.000000 -0.060510
v -0.099392 0.023156 -0.055904
v -0.124846 -0.023156 -0.055904
v 0.144846 -0.010771 -0.026004
v -0.124846 -0.042787 -0.042787
v -0.099392 0.042787 -0.042787
v -0.124846 -0.055904 -0.023156
v 0.144846 -0.026004 -0.010771
v -0.124846 -0.060510 0.000000
v -0.099392 0.055904 -0.023156
v -0.124846 -0.055904 0.023156
v 0.144846 -0.026004 0.010771
v -0.124846 -0.042787 0.042787
v -0.099392 0.060510 0.000000
v -0.124846 -0.023156 0.055904
v 0.144846 -0.010771 0.026004
v -0.124846 -0.000000 0.060510
v -0.099392 0.055904 0.023156
v -0.124846 0.023156 0.055904
v 0.144846 0.010771 0.026004
v -0.124846 0.042787 0.042787
v -0.099392 0.042787 0.042787
v -0.124846 0.055904 0.023156
v 0.144846 0.026004 0.010771
v -0.124846 0.060510 0.000000
v -0.099392 0.023156 0.055904
v -0.124846 0.055904 -0.023156
v 0.144846 0.026004 -0.010771
v -0.124846 0.042787 -0.042787
v 0.075806 0.042787 -0.042787
v -0.124846 0.023156 -0.055904
v 0.144846 0.010771 -0.026004
v 0.075806 -0.023156 -0.055904
v 0.075806 0.000000 -0.060510
v 0.075806 -0.042787 -0.042787
v 0.075806 -0.055904 -0.023156
v 0.075806 -0.060510 -0.000000
v 0.075806 -0.055904 0.023156
v 0.075806 -0.042787 0.042787
v 0.075806 -0.023156 0.055904
v 0.075806 0.000000 0.060510
v 0.075806 0.023156 0.055904
v 0.075806 0.042787 0.042787
v 0.075806 0.055904 0.023156
v 0.075806 0.060510 -0.000000
v 0.075806 0.055904 -0.023156
v -0.099392 -0.000000 0.060510
v 0.075806 0.023156 -0.055904
v -0.099392 -0.023156 0.055904
v 0.144846 0.000000 -0.028147
v 0.144846 -0.019903 -0.019903
v -0.099392 -0.042787 0.042787
v 0.144846 -0.028147 -0.000000
v -0.099392 -0.055904 0.023156
v 0.144846 -0.019903 0.019903
v -0.099392 -0.060510 0.000000
v 0.144846 0.000000 0.028147
v -0.099392 -0.055904 -0.023156
v 0.144846 0.019903 0.019903
v -0.099392 -0.042787 -0.042787
v 0.144846 0.028147 -0.000000
v -0.099392 -0.023156 -0.055904
v 0.144846 0.019903 -0.019903
v -0.099392 -0.000000 -0.060510
vn -1.0000 -0.0000 -0.0000
vn -0.0000 -0.1951 -0.9808
vn -0.0000 -0.5556 -0.8315
vn -0.0000 -0.8315 -0.5556
vn -0.0000 -0.9808 -0.1951
vn -0.0000 -0.9808 0.1951
vn -0.0000 -0.8315 0.5556
vn -0.0000 -0.5556 0.8315
vn 0.6017 0.3056 -0.7379
vn -0.0000 -0.1951 0.9808
vn 0.6017 0.3056 0.7379
vn -0.0000 0.1951 0.9808
vn 0.6017 -0.7379 -0.3056
vn -0.0000 0.5556 0.8315
vn 0.6017 0.7379 0.3056
vn -0.0000 0.8315 0.5556
vn 0.6017 0.7379 -0.3056
vn -0.0000 0.9808 0.1951
vn 0.6017 -0.3056 0.7379
vn -0.0000 0.9808 -0.1951
vn 0.6017 -0.7379 0.3056
vn -0.0000 0.8315 -0.5556
vn 0.6017 -0.3056 -0.7379
vn -0.0000 0.5556 -0.8315
vn -0.0000 0.1951 -0.9808
vn 0.4177 -0.5048 -0.7555
vn 0.4177 -0.7555 -0.5048
vn 0.4177 -0.8911 -0.1773
vn 0.4177 -0.8911 0.1773
vn 0.4177 -0.7555 0.5048
vn 0.4177 -0.5048 0.7555
vn 0.4177 -0.1773 0.8911
vn 0.4177 0.1773 0.8911
vn 0.4177 0.5048 0.7555
vn 0.4177 0.7555 0.5048
vn 0.4177 0.8911 0.1773
vn 0.4177 0.8911 -0.1773
vn 0.4177 0.7555 -0.5048
vn 0.4177 0.5048 -0.7555
vn 0.4177 0.1773 -0.8911
vn 0.4177 -0.1773 -0.8911
vt 0.557875 0.418648
vt 0.623071 0.431616
vt 0.567801 0.468547
vt 0.557875 0.444584
vt 0.027853 0.338659
vt 0.130937 0.341730
vt 0.131081 0.353768
vt 0.027507 0.354470
vt 0.688267 0.444584
vt 0.678342 0.394686
vt 0.688267 0.418648
vt 0.131969 0.365916
vt 0.027684 0.370347
vt 0.636040 0.366420
vt 0.586141 0.376346
vt 0.610103 0.366420
vt 0.133722 0.378228
vt 0.028377 0.386289
vt 0.610103 0.496812
vt 0.660002 0.486887
vt 0.636040 0.496812
vt 0.136221 0.390770
vt 0.029568 0.402297
vt 0.567801 0.394686
vt 0.139666 0.403678
vt 0.031224 0.418369
vt 0.678342 0.468547
vt 0.144201 0.417097
vt 0.033301 0.434510
vt 0.586141 0.486887
vt 0.150049 0.431231
vt 0.035735 0.450730
vt 0.379860 0.628057
vt 0.490563 0.628057
vt 0.487512 0.653868
vt 0.478526 0.678257
vt 0.157559 0.446398
vt 0.038443 0.467046
vt 0.345900 0.733422
vt 0.397372 0.737366
vt 0.371403 0.738436
vt 0.046684 0.213910
vt 0.161064 0.239054
vt 0.152832 0.253822
vt 0.043296 0.229324
vt 0.478526 0.577857
vt 0.445035 0.538574
vt 0.464103 0.556236
vt 0.146621 0.267503
vt 0.039989 0.244940
vt 0.445035 0.717540
vt 0.422375 0.730270
vt 0.141643 0.280574
vt 0.036947 0.260498
vt 0.464103 0.699878
vt 0.137777 0.293194
vt 0.034246 0.276046
vt 0.397372 0.518748
vt 0.345900 0.522691
vt 0.371403 0.517678
vt 0.134854 0.305519
vt 0.031944 0.291618
vt 0.422375 0.525844
vt 0.132763 0.317665
vt 0.030090 0.307238
vt 0.487511 0.602246
vt 0.131437 0.329720
vt 0.028718 0.322917
vt 0.660002 0.376346
vt 0.181246 0.350750
vt 0.182276 0.358941
vt 0.183397 0.367184
vt 0.185671 0.375120
vt 0.188647 0.382898
vt 0.192393 0.390445
vt 0.196998 0.397667
vt 0.202580 0.404433
vt 0.202580 0.281509
vt 0.196981 0.287975
vt 0.192276 0.294786
vt 0.188628 0.302280
vt 0.185808 0.310048
vt 0.183728 0.318019
vt 0.182323 0.326136
vt 0.181551 0.334358
vt 0.180817 0.342549
vt 0.534914 0.382828
vt 0.517929 0.382828
vt 0.517929 0.367073
vt 0.534914 0.367073
vt 0.517929 0.351319
vt 0.534914 0.351319
vt 0.517929 0.335564
vt 0.534914 0.335564
vt 0.517929 0.319809
vt 0.534914 0.319809
vt 0.517929 0.304054
vt 0.534914 0.304054
vt 0.517929 0.288299
vt 0.534914 0.288299
vt 0.517929 0.272545
vt 0.534914 0.272545
vt 0.517929 0.256790
vt 0.534914 0.256790
vt 0.517929 0.241035
vt 0.534914 0.241035
vt 0.534914 0.493111
vt 0.517929 0.493111
vt 0.517929 0.477357
vt 0.534914 0.477357
vt 0.517929 0.461602
vt 0.534914 0.461602
vt 0.517929 0.445847
vt 0.534914 0.445847
vt 0.517929 0.430092
vt 0.534914 0.430092
vt 0.517929 0.414338
vt 0.534914 0.414338
vt 0.517929 0.398583
vt 0.534914 0.398583
s 0
usemtl Material.002
f 23/1/1 1/2/1 19/3/1 21/4/1
f 66/5/2 36/6/2 35/7/2 64/8/2
f 7/9/1 1/2/1 3/10/1 5/11/1
f 64/8/3 35/7/3 37/12/3 62/13/3
f 31/14/1 1/2/1 27/15/1 29/16/1
f 62/13/4 37/12/4 38/17/4 60/18/4
f 15/19/1 1/2/1 11/20/1 13/21/1
f 60/18/5 38/17/5 39/22/5 58/23/5
f 27/15/1 1/2/1 23/1/1 25/24/1
f 58/23/6 39/22/6 40/25/6 56/26/6
f 11/20/1 1/2/1 7/9/1 9/27/1
f 56/26/7 40/25/7 41/28/7 54/29/7
f 19/3/1 1/2/1 15/19/1 17/30/1
f 54/29/8 41/28/8 42/31/8 51/32/8
f 2/33/9 52/34/9 34/35/9 65/36/9
f 51/32/10 42/31/10 43/37/10 49/38/10
f 59/39/11 2/33/11 61/40/11 22/41/11
f 49/42/12 43/43/12 44/44/12 28/45/12
f 53/46/13 2/33/13 55/47/13 10/48/13
f 28/45/14 44/44/14 45/49/14 24/50/14
f 61/40/15 2/33/15 63/51/15 26/52/15
f 24/50/16 45/49/16 46/53/16 20/54/16
f 2/33/17 65/36/17 30/55/17 63/51/17
f 20/54/18 46/53/18 47/56/18 16/57/18
f 57/58/19 2/33/19 59/59/19 18/60/19
f 16/57/20 47/56/20 48/61/20 12/62/20
f 55/47/21 2/33/21 57/58/21 14/63/21
f 12/62/22 48/61/22 32/64/22 8/65/22
f 6/66/23 52/34/23 2/33/23 53/46/23
f 8/65/24 32/64/24 50/67/24 4/68/24
f 4/68/25 50/67/25 36/6/25 66/5/25
f 3/10/1 1/2/1 31/14/1 33/69/1
f 6/70/26 53/71/26 37/12/26 35/7/26
f 53/71/27 10/72/27 38/17/27 37/12/27
f 10/72/28 55/73/28 39/22/28 38/17/28
f 55/73/29 14/74/29 40/25/29 39/22/29
f 14/74/30 57/75/30 41/28/30 40/25/30
f 57/75/31 18/76/31 42/31/31 41/28/31
f 18/76/32 59/77/32 43/37/32 42/31/32
f 59/78/33 22/79/33 44/44/33 43/43/33
f 22/79/34 61/80/34 45/49/34 44/44/34
f 61/80/35 26/81/35 46/53/35 45/49/35
f 26/81/36 63/82/36 47/56/36 46/53/36
f 63/82/37 30/83/37 48/61/37 47/56/37
f 30/83/38 65/84/38 32/64/38 48/61/38
f 65/84/39 34/85/39 50/67/39 32/64/39
f 34/85/40 52/86/40 36/6/40 50/67/40
f 33/87/25 4/88/25 66/89/25 3/90/25
f 3/90/2 66/89/2 64/91/2 5/92/2
f 5/92/3 64/91/3 62/93/3 7/94/3
f 7/94/4 62/93/4 60/95/4 9/96/4
f 9/96/5 60/95/5 58/97/5 11/98/5
f 11/98/6 58/97/6 56/99/6 13/100/6
f 13/100/7 56/99/7 54/101/7 15/102/7
f 15/102/8 54/101/8 51/103/8 17/104/8
f 17/104/10 51/103/10 49/105/10 19/106/10
f 19/107/12 49/108/12 28/109/12 21/110/12
f 21/110/14 28/109/14 24/111/14 23/112/14
f 23/112/16 24/111/16 20/113/16 25/114/16
f 25/114/18 20/113/18 16/115/18 27/116/18
f 27/116/20 16/115/20 12/117/20 29/118/20
f 29/118/22 12/117/22 8/119/22 31/120/22
f 31/120/24 8/119/24 4/88/24 33/87/24
f 52/86/41 6/70/41 35/7/41 36/6/41
